<svg xmlns="http://www.w3.org/2000/svg" width="1280" height="724" viewBox="0 0 1280 724" role="img" aria-label="Languages, most preferred to learning: JavaScript (advanced), PHP (advanced), GDScript 2 (advanced), TypeScript (intermediate)."><title>Languages, most preferred to learning: JavaScript (advanced), PHP (advanced), GDScript 2 (advanced), TypeScript (intermediate).</title><style>
.d{font-family:Unbounded, 'Segoe UI', 'Helvetica Neue', Helvetica, Arial, sans-serif;font-weight:600}
.m{font-family:'IBM Plex Mono', ui-monospace, SFMono-Regular, Menlo, Consolas, monospace;font-weight:500}
.s{font-family:'IBM Plex Sans', -apple-system, 'Segoe UI', 'Helvetica Neue', Helvetica, Arial, sans-serif}
@keyframes spin{to{transform:rotate(360deg)}}
.orb{animation:spin var(--t) linear infinite;animation-direction:var(--dir)}
.keep{transform-box:fill-box;transform-origin:center;animation:spin var(--t) linear infinite;animation-direction:var(--rdir)}
@media (prefers-reduced-motion:reduce){.orb,.keep{animation:none}}
</style><rect x=".5" y=".5" width="1279" height="723" rx="14" fill="#0a0b0d" stroke="#24262c"/><text x="40" y="78" class="d" font-size="34" fill="#eeeee9" letter-spacing="-0.4">Languages</text><text x="1240" y="74" class="m" font-size="16" fill="#8b8f98" text-anchor="end" letter-spacing="2.4">MOST PREFERRED → LEARNING</text><rect x="40" y="100" width="44" height="4" fill="#3b5bff"/><g transform="translate(40 140)"><rect x=".75" y=".75" width="588.5" height="260.5" fill="#121317" stroke="#24262c" stroke-width="1.5"/><polygon points="564,0 590,0 590,26" fill="#3b5bff"/><g transform="translate(24 22) scale(0.5000)"><path d="M20 20 H152 L180 48 V180 H20 Z" fill="#0a0b0d" stroke="#eeeee9" stroke-width="3"/><polygon points="159,20 180,20 180,41" fill="#3b5bff"/><text x="34" y="46" class="m" font-size="14" fill="#eeeee9">01</text><text x="100" y="124" class="d" font-size="68" fill="#eeeee9" text-anchor="middle" font-weight="700">Js</text><text x="34" y="164" class="m" font-size="10" fill="#eeeee9" letter-spacing="2">JAVASCRIPT</text></g><text x="144" y="84" class="d" font-size="30" fill="#eeeee9" letter-spacing="-0.4">JavaScript</text><text x="32" y="166" class="s" font-size="21" fill="#8b8f98">Discord bots, web tooling and syntax highlighters.</text><line x1="32" y1="196" x2="558" y2="196" stroke="#24262c" stroke-width="1.5"/><text x="32" y="236" class="m" font-size="16" fill="#8b8f98" letter-spacing="1.6">SHELL 1</text><rect x="445" y="214.0" width="113" height="32" fill="none" stroke="#24262c" stroke-width="1.5"/><rect x="457.0" y="226.25" width="7.5" height="7.5" fill="#3b5bff"/><text x="471.25" y="235.4" class="m" font-size="15" fill="#eeeee9" letter-spacing="0.8999999999999999">ADVANCED</text></g><g transform="translate(650 140)"><rect x=".75" y=".75" width="588.5" height="260.5" fill="#121317" stroke="#24262c" stroke-width="1.5"/><polygon points="564,0 590,0 590,26" fill="#3b5bff"/><g transform="translate(24 22) scale(0.5000)"><path d="M20 20 H152 L180 48 V180 H20 Z" fill="#0a0b0d" stroke="#eeeee9" stroke-width="3"/><polygon points="159,20 180,20 180,41" fill="#3b5bff"/><text x="34" y="46" class="m" font-size="14" fill="#eeeee9">02</text><text x="100" y="124" class="d" font-size="68" fill="#eeeee9" text-anchor="middle" font-weight="700">Ph</text><text x="34" y="164" class="m" font-size="10" fill="#eeeee9" letter-spacing="2">PHP</text></g><text x="144" y="84" class="d" font-size="30" fill="#eeeee9" letter-spacing="-0.4">PHP</text><text x="32" y="166" class="s" font-size="21" fill="#8b8f98">Backends and server-side web work.</text><line x1="32" y1="196" x2="558" y2="196" stroke="#24262c" stroke-width="1.5"/><text x="32" y="236" class="m" font-size="16" fill="#8b8f98" letter-spacing="1.6">SHELL 2</text><rect x="445" y="214.0" width="113" height="32" fill="none" stroke="#24262c" stroke-width="1.5"/><rect x="457.0" y="226.25" width="7.5" height="7.5" fill="#3b5bff"/><text x="471.25" y="235.4" class="m" font-size="15" fill="#eeeee9" letter-spacing="0.8999999999999999">ADVANCED</text></g><g transform="translate(40 422)"><rect x=".75" y=".75" width="588.5" height="260.5" fill="#121317" stroke="#24262c" stroke-width="1.5"/><polygon points="564,0 590,0 590,26" fill="#3b5bff"/><g transform="translate(24 22) scale(0.5000)"><path d="M20 20 H152 L180 48 V180 H20 Z" fill="#0a0b0d" stroke="#eeeee9" stroke-width="3"/><polygon points="159,20 180,20 180,41" fill="#3b5bff"/><text x="34" y="46" class="m" font-size="14" fill="#eeeee9">03</text><text x="100" y="124" class="d" font-size="68" fill="#eeeee9" text-anchor="middle" font-weight="700">Gd</text><text x="34" y="164" class="m" font-size="10" fill="#eeeee9" letter-spacing="2">GDSCRIPT 2</text></g><text x="144" y="84" class="d" font-size="30" fill="#eeeee9" letter-spacing="-0.4">GDScript 2</text><text x="32" y="166" class="s" font-size="21" fill="#8b8f98">Games and tools built in Godot.</text><line x1="32" y1="196" x2="558" y2="196" stroke="#24262c" stroke-width="1.5"/><text x="32" y="236" class="m" font-size="16" fill="#8b8f98" letter-spacing="1.6">SHELL 3</text><rect x="445" y="214.0" width="113" height="32" fill="none" stroke="#24262c" stroke-width="1.5"/><rect x="457.0" y="226.25" width="7.5" height="7.5" fill="#3b5bff"/><text x="471.25" y="235.4" class="m" font-size="15" fill="#eeeee9" letter-spacing="0.8999999999999999">ADVANCED</text></g><g transform="translate(650 422)"><rect x=".75" y=".75" width="588.5" height="260.5" fill="#121317" stroke="#24262c" stroke-width="1.5"/><polygon points="564,0 590,0 590,26" fill="#3b5bff"/><g transform="translate(24 22) scale(0.5000)"><path d="M20 20 H152 L180 48 V180 H20 Z" fill="none" stroke="#3b5bff" stroke-width="3" stroke-dasharray="9 7"/><text x="34" y="46" class="m" font-size="14" fill="#8b8f98">04</text><text x="100" y="124" class="d" font-size="68" fill="#8b8f98" text-anchor="middle" font-weight="700">Ts</text><text x="34" y="164" class="m" font-size="10" fill="#8b8f98" letter-spacing="2">TYPESCRIPT</text></g><text x="144" y="84" class="d" font-size="30" fill="#eeeee9" letter-spacing="-0.4">TypeScript</text><text x="32" y="166" class="s" font-size="21" fill="#8b8f98">JavaScript with types. Levelling up now.</text><line x1="32" y1="196" x2="558" y2="196" stroke="#24262c" stroke-width="1.5"/><text x="32" y="236" class="m" font-size="16" fill="#8b8f98" letter-spacing="1.6">SHELL 4</text><rect x="407" y="214.0" width="151" height="32" fill="none" stroke="#24262c" stroke-width="1.5"/><rect x="419.0" y="226.25" width="7.5" height="7.5" fill="#e8b04a"/><text x="433.25" y="235.4" class="m" font-size="15" fill="#eeeee9" letter-spacing="0.8999999999999999">INTERMEDIATE</text></g></svg>
